<svg width="40" height="43" viewBox="0 0 40 43" fill="none" xmlns="http://www.w3.org/2000/svg">
<g filter="url(#filter0_d)">
<path d="M34.3333 11.3643C34.3333 8.86857 32.1313 6.6665 29.6356 6.6665H10.6977C8.20207 6.6665 6 8.86857 6 11.3643V30.3021C6 32.7977 8.20207 34.9998 10.6977 34.9998H20.2401V24.2831H16.7168V19.5853H20.2401V17.6769C20.2401 14.4472 22.5889 11.6579 25.525 11.6579H29.342V16.3556H25.525C25.0846 16.3556 24.6442 16.796 24.6442 17.6769V19.5853H29.342V24.2831H24.6442V34.9998H29.6356C32.1313 34.9998 34.3333 32.7977 34.3333 30.3021V11.3643Z" fill="#F8F8F8"/>
</g>
<defs>
<filter id="filter0_d" x="-4" y="0" width="48" height="48" filterUnits="userSpaceOnUse" color-interpolation-filters="sRGB">
<feFlood flood-opacity="0" result="BackgroundImageFix"/>
<feColorMatrix in="SourceAlpha" type="matrix" values="0 0 0 0 0 0 0 0 0 0 0 0 0 0 0 0 0 0 127 0" result="hardAlpha"/>
<feOffset dy="4"/>
<feGaussianBlur stdDeviation="2"/>
<feComposite in2="hardAlpha" operator="out"/>
<feColorMatrix type="matrix" values="0 0 0 0 0 0 0 0 0 0 0 0 0 0 0 0 0 0 0.25 0"/>
<feBlend mode="normal" in2="BackgroundImageFix" result="effect1_dropShadow"/>
<feBlend mode="normal" in="SourceGraphic" in2="effect1_dropShadow" result="shape"/>
</filter>
</defs>
</svg>
