<svg width="74" height="64" viewBox="0 0 74 64" fill="none" xmlns="http://www.w3.org/2000/svg">
<path d="M41.493 39.78C40.573 40.9 39.553 42.04 38.433 43.2C37.353 44.32 36.253 45.34 35.133 46.26C34.013 47.18 32.893 47.92 31.773 48.48C30.693 49.04 29.693 49.32 28.773 49.32C27.973 49.32 27.413 49.12 27.093 48.72C26.773 48.32 26.613 47.82 26.613 47.22C26.613 46.66 26.773 45.92 27.093 45C27.453 44.04 27.973 43.02 28.653 41.94C28.133 42.62 27.533 43.34 26.853 44.1C26.173 44.86 25.473 45.56 24.753 46.2C24.033 46.8 23.313 47.32 22.593 47.76C21.873 48.16 21.233 48.36 20.673 48.36C19.833 48.36 19.413 47.94 19.413 47.1C19.413 46.18 19.773 45.02 20.493 43.62C21.213 42.22 22.173 40.88 23.373 39.6C24.613 38.28 26.013 37.16 27.573 36.24C29.133 35.28 30.753 34.8 32.433 34.8C32.633 34.4 32.813 34.12 32.973 33.96C33.133 33.8 33.293 33.68 33.453 33.6L35.133 33.12L35.253 33.18C35.053 33.38 34.853 33.64 34.653 33.96C34.493 34.24 34.313 34.54 34.113 34.86C34.313 34.86 34.613 34.88 35.013 34.92C35.413 34.96 35.713 35 35.913 35.04C36.113 35.12 36.213 35.22 36.213 35.34C36.213 35.46 36.153 35.52 36.033 35.52C35.793 35.44 35.433 35.38 34.953 35.34C34.473 35.3 34.113 35.28 33.873 35.28C32.033 38.52 30.673 41.1 29.793 43.02C28.953 44.9 28.533 46.3 28.533 47.22C28.533 47.58 28.613 47.88 28.773 48.12C28.973 48.36 29.353 48.48 29.913 48.48C30.553 48.48 31.313 48.26 32.193 47.82C33.073 47.34 34.013 46.7 35.013 45.9C36.013 45.06 37.033 44.1 38.073 43.02C39.153 41.94 40.173 40.8 41.133 39.6C41.213 39.48 41.293 39.46 41.373 39.54C41.453 39.58 41.493 39.66 41.493 39.78ZM32.133 35.22C30.773 35.22 29.473 35.7 28.233 36.66C26.993 37.62 25.893 38.76 24.933 40.08C23.973 41.36 23.193 42.64 22.593 43.92C22.033 45.2 21.753 46.14 21.753 46.74C21.753 47.06 21.873 47.22 22.113 47.22C22.353 47.22 22.713 47.06 23.193 46.74C23.713 46.42 24.293 46 24.933 45.48C25.573 44.92 26.213 44.28 26.853 43.56C27.533 42.84 28.153 42.06 28.713 41.22C29.353 40.26 29.973 39.24 30.573 38.16C31.173 37.08 31.713 36.12 32.193 35.28L32.133 35.22ZM64.1823 9.42C64.1823 10.02 64.1623 10.42 64.1223 10.62C64.0823 10.82 64.0023 10.86 63.8823 10.74C63.6823 10.54 63.4023 10.32 63.0423 10.08C62.7223 9.8 62.1423 9.66 61.3023 9.66C60.5823 9.66 59.9223 9.7 59.3223 9.78C58.7223 9.86 58.1023 10.02 57.4623 10.26C56.8623 10.5 56.2223 10.84 55.5423 11.28C54.8623 11.68 54.1023 12.24 53.2623 12.96C52.0623 13.96 50.7623 15.44 49.3623 17.4C47.9623 19.32 46.5423 21.44 45.1023 23.76C43.7023 26.04 42.3623 28.38 41.0823 30.78C39.8023 33.14 38.6823 35.26 37.7223 37.14C37.4023 37.78 37.0423 38.54 36.6423 39.42C36.2823 40.26 35.9423 41.12 35.6223 42C35.3423 42.84 35.1023 43.64 34.9023 44.4C34.7023 45.12 34.6023 45.66 34.6023 46.02C34.6023 47.1 34.9623 47.64 35.6823 47.64C36.1223 47.64 36.6223 47.44 37.1823 47.04C37.7423 46.6 38.2823 46 38.8023 45.24C39.3223 44.44 39.7623 43.48 40.1223 42.36C40.4823 41.2 40.6623 39.9 40.6623 38.46C40.6623 37.98 40.6223 37.6 40.5423 37.32C40.5023 37 40.4423 36.74 40.3623 36.54C40.3623 36.3 40.4823 36.06 40.7223 35.82C40.8823 35.66 41.0823 35.48 41.3223 35.28C41.5623 35.04 41.7823 34.86 41.9823 34.74C42.1023 34.74 42.1823 34.78 42.2223 34.86C42.2223 35.66 42.3623 36.34 42.6423 36.9C42.9623 37.42 43.3423 37.86 43.7823 38.22C44.2623 38.54 44.7623 38.78 45.2823 38.94C45.8423 39.1 46.3623 39.18 46.8423 39.18C47.5223 39.18 48.2623 39.08 49.0623 38.88C49.8623 38.64 50.6823 38.26 51.5223 37.74C51.7223 37.62 51.8423 37.64 51.8823 37.8C51.9623 37.92 51.9023 38.02 51.7023 38.1C50.4223 38.78 49.2423 39.28 48.1623 39.6C47.1223 39.92 46.1423 40.08 45.2223 40.08C44.4623 40.08 43.7623 39.92 43.1223 39.6C42.5223 39.24 42.0623 38.84 41.7423 38.4C41.7423 39.92 41.4823 41.3 40.9623 42.54C40.4823 43.78 39.8823 44.84 39.1623 45.72C38.4423 46.56 37.6623 47.22 36.8223 47.7C35.9823 48.18 35.2223 48.42 34.5423 48.42C33.9023 48.42 33.3623 48.22 32.9223 47.82C32.5223 47.42 32.3223 46.8 32.3223 45.96C32.3223 45.32 32.4623 44.54 32.7423 43.62C33.0223 42.7 33.3623 41.78 33.7623 40.86C34.2023 39.9 34.6423 39 35.0823 38.16C35.5223 37.28 35.8823 36.58 36.1623 36.06C37.2423 34.06 38.4023 32.02 39.6423 29.94C40.8823 27.86 42.1823 25.8 43.5423 23.76C44.9423 21.72 46.4023 19.76 47.9223 17.88C49.4823 15.96 51.1223 14.2 52.8423 12.6C53.3223 12.16 53.9223 11.64 54.6423 11.04C55.4023 10.44 56.2023 9.88 57.0423 9.36C57.8823 8.8 58.7223 8.34 59.5623 7.98C60.4423 7.62 61.2423 7.44 61.9623 7.44C62.6823 7.44 63.2223 7.64 63.5823 8.04C63.9823 8.4 64.1823 8.86 64.1823 9.42Z" fill="#F8F8F8"/>
<path d="M62.0977 8.1207C62.3782 7.78738 62.8766 7.74391 63.2029 8.03257C67.738 12.0445 71.0461 17.2652 72.7349 23.0911C74.4969 29.1699 74.4167 35.6347 72.5046 41.6679C70.5925 47.7012 66.9342 53.0319 61.9924 56.986C57.0507 60.9402 51.0473 63.3401 44.7416 63.8823C38.4359 64.4246 32.111 63.0848 26.5667 60.0323C21.0224 56.9799 16.5078 52.352 13.5937 46.7338C10.6797 41.1155 9.49704 34.7593 10.1954 28.469C10.8647 22.4402 13.233 16.7315 17.0167 12.0042C17.2889 11.6641 17.7874 11.6218 18.1207 11.9023C18.454 12.1829 18.4959 12.6799 18.2241 13.0204C14.6412 17.5087 12.3983 22.9245 11.7635 28.6431C11.0995 34.6233 12.2238 40.6661 14.9942 46.0073C17.7646 51.3486 22.0566 55.7484 27.3276 58.6503C32.5985 61.5522 38.6116 62.826 44.6064 62.3105C50.6013 61.795 56.3086 59.5134 61.0068 55.7542C65.7049 51.995 69.1828 46.9271 71.0007 41.1913C72.8185 35.4555 72.8947 29.3094 71.2196 23.5304C69.6177 18.0041 66.4832 13.0507 62.1867 9.24001C61.8607 8.95094 61.8171 8.45403 62.0977 8.1207Z" fill="#F8F8F8"/>
</svg>
