<svg width="44" height="40" viewBox="0 0 44 40" fill="none" xmlns="http://www.w3.org/2000/svg">
<g filter="url(#filter0_d)">
<path d="M38.7878 29.7932C38.7878 29.6548 38.6495 29.6548 38.6495 29.5164C38.096 28.4095 36.8506 27.0257 35.1902 25.5037C34.3599 24.8118 33.9448 24.2583 33.6681 23.9816C33.253 23.4281 33.253 23.013 33.3914 22.4595C33.5297 22.0444 34.0832 21.3525 35.0518 20.1072C35.6053 19.4153 35.882 19.0002 36.2971 18.5851C38.3727 15.8176 39.3413 14.0188 39.0646 13.1886L38.9262 13.0502C38.7878 12.9118 38.6494 12.7735 38.3727 12.7735C38.096 12.6351 37.6809 12.6351 37.2657 12.7735H32.0076C31.8693 12.7735 31.8692 12.7735 31.5925 12.7735C31.4541 12.7735 31.3158 12.7735 31.3158 12.7735H31.1774H31.039L30.9006 12.9118C30.7623 13.0502 30.7623 13.0502 30.7623 13.1886C30.2088 14.7107 29.5169 15.956 28.8251 17.3397C28.41 18.0316 27.9949 18.7235 27.5797 19.2769C27.1646 19.8304 26.8879 20.2455 26.6111 20.5223C26.3344 20.799 26.0576 20.9374 25.9193 21.2141C25.7809 21.3525 25.5042 21.4909 25.5042 21.3525C25.3658 21.3525 25.2274 21.3525 25.2274 21.2141C25.089 21.0758 24.9507 20.9374 24.8123 20.799C24.6739 20.6606 24.6739 20.3839 24.5355 20.1072C24.5355 19.8304 24.5355 19.5537 24.5355 19.4153C24.5355 19.2769 24.5355 18.8618 24.5355 18.5851C24.5355 18.17 24.5355 17.8932 24.5355 17.7548C24.5355 17.3397 24.5355 16.7863 24.5355 16.2328C24.5355 15.6793 24.5355 15.2642 24.5355 14.9874C24.5355 14.7107 24.5355 14.2956 24.5355 14.0188C24.5355 13.6037 24.5355 13.3269 24.5355 13.1886C24.5355 13.0502 24.3972 12.7735 24.3972 12.6351C24.2588 12.4967 24.1204 12.3584 23.9821 12.22C23.8437 12.0816 23.567 12.0816 23.4286 11.9432C22.7367 11.8049 21.9065 11.6665 20.9379 11.6665C18.724 11.6665 17.2019 11.8049 16.6484 12.0816C16.3717 12.22 16.0949 12.3584 15.9565 12.6351C15.6798 12.9118 15.6798 13.0502 15.8182 13.0502C16.51 13.1886 17.0635 13.4653 17.3403 13.8804L17.4786 14.1572C17.617 14.2956 17.617 14.5723 17.7553 14.9874C17.8937 15.4025 17.8937 15.8176 17.8937 16.3711C17.8937 17.2014 17.8937 18.0316 17.8937 18.5851C17.8937 19.2769 17.7553 19.692 17.7553 20.1072C17.7553 20.5223 17.617 20.799 17.4786 20.9374C17.3403 21.2141 17.3402 21.3525 17.2019 21.3525C17.2019 21.3525 17.2019 21.4909 17.0635 21.4909C16.9251 21.4909 16.7868 21.6293 16.51 21.6293C16.3716 21.6293 16.0949 21.4909 15.9565 21.3525C15.6798 21.2141 15.403 20.9374 15.2647 20.6607C14.9879 20.3839 14.7112 19.9688 14.4344 19.4153C14.1577 18.8618 13.7426 18.3083 13.4658 17.4781L13.1891 16.9246C13.0507 16.6479 12.774 16.0944 12.4972 15.4025C12.2205 14.7107 11.9438 14.1572 11.667 13.4653C11.5286 13.1886 11.3903 13.0502 11.2519 12.9118H11.1135C11.1135 12.9118 10.9751 12.7735 10.8368 12.7735C10.6984 12.7735 10.56 12.6351 10.4217 12.6351H5.44029C4.8868 12.6351 4.61006 12.7735 4.47169 12.9118L4.33331 13.0502C4.33331 13.0502 4.33331 13.1886 4.33331 13.327C4.33331 13.4653 4.33332 13.6037 4.47169 13.8804C5.16355 15.5409 5.99378 17.2014 6.82401 18.8618C7.65423 20.3839 8.48447 21.7676 9.03796 22.7362C9.72982 23.7048 10.2833 24.6734 10.9752 25.5037C11.667 26.3339 12.0821 26.8874 12.2205 27.1641C12.4972 27.4409 12.6356 27.5792 12.774 27.7176L13.1891 28.1327C13.4658 28.4095 13.881 28.8246 14.4344 29.2397C14.9879 29.6548 15.6798 30.0699 16.3716 30.485C17.0635 30.9001 17.8937 31.1769 18.724 31.4536C19.6926 31.7304 20.5228 31.8687 21.353 31.7304H23.4286C23.8437 31.7304 24.1205 31.592 24.3972 31.3153L24.5355 31.1769C24.5355 31.0385 24.6739 31.0385 24.6739 30.9001C24.6739 30.7618 24.6739 30.6234 24.6739 30.3467C24.6739 29.7932 24.6739 29.3781 24.8123 28.9629C24.9507 28.5478 24.9507 28.2711 25.0891 27.9944C25.2274 27.7176 25.3658 27.5792 25.5042 27.4409C25.6425 27.3025 25.7809 27.1641 25.7809 27.1641H25.9193C26.196 27.0257 26.6111 27.1641 26.8879 27.4409C27.303 27.7176 27.7181 28.1327 27.9948 28.5478C28.2716 28.9629 28.6867 29.3781 29.2402 29.9315C29.7937 30.485 30.2088 30.9001 30.4855 31.0385L30.9006 31.3153C31.1774 31.4536 31.4541 31.592 31.8693 31.7304C32.2844 31.8687 32.5611 31.8687 32.8378 31.8687L37.5425 31.7304C37.9576 31.7304 38.3727 31.592 38.6495 31.4536C38.9262 31.3153 39.0646 31.1769 39.0646 30.9001C39.0646 30.7618 39.0646 30.485 39.0646 30.3467C38.7878 30.0699 38.7878 29.9315 38.7878 29.7932Z" fill="#F8F8F8"/>
</g>
<defs>
<filter id="filter0_d" x="-2" y="0" width="48" height="48" filterUnits="userSpaceOnUse" color-interpolation-filters="sRGB">
<feFlood flood-opacity="0" result="BackgroundImageFix"/>
<feColorMatrix in="SourceAlpha" type="matrix" values="0 0 0 0 0 0 0 0 0 0 0 0 0 0 0 0 0 0 127 0" result="hardAlpha"/>
<feOffset dy="4"/>
<feGaussianBlur stdDeviation="2"/>
<feComposite in2="hardAlpha" operator="out"/>
<feColorMatrix type="matrix" values="0 0 0 0 0 0 0 0 0 0 0 0 0 0 0 0 0 0 0.25 0"/>
<feBlend mode="normal" in2="BackgroundImageFix" result="effect1_dropShadow"/>
<feBlend mode="normal" in="SourceGraphic" in2="effect1_dropShadow" result="shape"/>
</filter>
</defs>
</svg>
